<?xml version="1.0" encoding="UTF-8" standalone="no"?>
<!-- Created with Inkscape (http://www.inkscape.org/) -->

<svg
   width="1421.4547mm"
   height="1196.5616mm"
   viewBox="0 0 426.36985 346.27355"
   version="1.1"
   id="svg5"
   sodipodi:docname="icon-2-human.svg"
   inkscape:version="1.2.2 (b0a8486541, 2022-12-01)"
   xml:space="preserve"
   inkscape:export-filename="icon-2-human.png"
   inkscape:export-xdpi="22.852863"
   inkscape:export-ydpi="22.852863"
   xmlns:inkscape="http://www.inkscape.org/namespaces/inkscape"
   xmlns:sodipodi="http://sodipodi.sourceforge.net/DTD/sodipodi-0.dtd"
   xmlns="http://www.w3.org/2000/svg"
   xmlns:svg="http://www.w3.org/2000/svg"><style
     id="style3879">
.headset { 
    fill:white;
  /*stroke-width:2px;*/
}
.robot { stroke-width:2px;    stroke:black;    fill:none; }
.stickman { fill:white;    stroke:black;    stroke-linecap:round;    stroke-width:2px; }
#headset,#g369 { fill:white;    stroke-width:4px; }
#stickman { /*stroke-width:10px !important;*/ }
* { /*fill:none;*/  /*stroke-width:2px;*/ }
</style><sodipodi:namedview
     id="namedview7"
     pagecolor="#ffffff"
     bordercolor="#666666"
     borderopacity="1.0"
     inkscape:showpageshadow="2"
     inkscape:pageopacity="0.0"
     inkscape:pagecheckerboard="0"
     inkscape:deskcolor="#d1d1d1"
     inkscape:document-units="mm"
     showgrid="false"
     inkscape:zoom="0.074331524"
     inkscape:cx="6578.6354"
     inkscape:cy="2340.8641"
     inkscape:window-width="1852"
     inkscape:window-height="1011"
     inkscape:window-x="0"
     inkscape:window-y="0"
     inkscape:window-maximized="1"
     inkscape:current-layer="layer7"
     style="" /><defs
     id="defs2"><inkscape:path-effect
       effect="fillet_chamfer"
       id="path-effect7792"
       is_visible="false"
       lpeversion="1"
       nodesatellites_param="C,0,0,1,0,0,0,2 @ C,0,0,1,0,0,0,2 @ C,0,0,1,0,0,0,2 @ C,0,0,1,0,0,0,2 @ C,0,0,1,0,0,0,2 @ C,0,0,1,0,0,0,2 @ C,0,0,1,0,0,0,2 @ C,0,0,1,0,0,0,2 @ C,0,0,1,0,5.5762236,0,2 @ C,0,0,1,0,6.2439828,0,2 @ C,0,0,1,0,4.7328465,0,2 @ C,0,0,1,0,0,0,2 @ C,0,0,1,0,0,0,2 @ C,0,0,1,0,0,0,2 @ C,0,0,1,0,0,0,2 @ C,0,0,1,0,0,0,2 @ C,0,0,1,0,0,0,2 @ C,0,0,1,0,0,0,2 @ C,0,0,1,0,0,0,2 @ C,0,0,1,0,0,0,2 @ C,0,0,1,0,0,0,2 @ C,0,0,1,0,0,0,2 @ C,0,0,1,0,0,0,2 @ C,0,0,1,0,0,0,2 @ C,0,0,1,0,1.9997772,0,2 @ C,0,0,1,0,1.7621844,0,2 @ C,0,0,1,0,0,0,2 @ C,0,0,1,0,0,0,2 @ C,0,0,1,0,0,0,2 @ C,0,0,1,0,0,0,2 @ C,0,0,1,0,0,0,2 @ C,0,0,1,0,6.2439828,0,2 @ C,0,0,1,0,0,0,2 @ C,0,0,1,0,0,0,2 @ C,0,0,1,0,6.3754022,0,2 @ C,0,0,1,0,0,0,2 @ C,0,0,1,0,0,0,2 @ C,0,0,1,0,0,0,2 @ C,0,0,1,0,0,0,2 @ C,0,0,1,0,4.8894951,0,2 @ C,0,0,1,0,6.634224,0,2 @ C,0,0,1,0,0,0,2 @ C,0,0,1,0,0,0,2 @ C,0,0,1,0,0,0,2 @ C,0,0,1,0,0,0,2 @ C,0,0,1,0,0,0,2 @ C,0,0,1,0,0,0,2 @ C,0,0,1,0,0,0,2 @ C,0,0,1,0,0,0,2 @ C,0,0,1,0,0,0,2 @ C,0,0,1,0,0,0,2 @ C,0,0,1,0,0,0,2 @ C,0,0,1,0,0,0,2 @ C,0,0,1,0,0,0,2 | C,0,0,1,0,0,0,2 @ C,0,0,1,0,0,0,2 @ C,0,0,1,0,0,0,2 @ C,0,0,1,0,0,0,2 @ C,0,0,1,0,0,0,2 @ C,0,0,1,0,0,0,2 @ C,0,0,1,0,0,0,2"
       unit="px"
       method="bezier"
       mode="C"
       radius="0"
       chamfer_steps="2"
       flexible="false"
       use_knot_distance="true"
       apply_no_radius="true"
       apply_with_radius="true"
       only_selected="false"
       hide_knots="false" /><inkscape:path-effect
       effect="fillet_chamfer"
       id="path-effect7334"
       is_visible="true"
       lpeversion="1"
       nodesatellites_param="F,0,0,1,0,0,0,1 @ F,0,0,1,0,0,0,1 @ F,0,0,1,0,0,0,1 @ F,0,0,1,0,0,0,1 @ F,0,0,1,0,0,0,1 @ F,0,0,1,0,0,0,1 @ F,0,0,1,0,0,0,1 @ F,0,0,1,0,0,0,1 @ F,0,0,1,0,0,0,1 @ F,0,0,1,0,0,0,1 @ F,0,0,1,0,0,0,1 @ F,0,0,1,0,0,0,1 @ F,0,0,1,0,0,0,1 @ F,0,0,1,0,0,0,1 @ F,0,0,1,0,0,0,1 @ F,0,0,1,0,0,0,1 @ F,0,0,1,0,0,0,1 @ F,0,0,1,0,0,0,1 @ F,0,0,1,0,0,0,1 @ F,0,0,1,0,0,0,1 @ F,0,0,1,0,0,0,1 @ F,0,0,1,0,0,0,1 @ F,0,0,1,0,0,0,1 @ F,0,0,1,0,0,0,1 @ F,0,0,1,0,0,0,1 @ F,0,0,1,0,0,0,1 @ F,0,0,1,0,0,0,1 @ F,0,0,1,0,0,0,1 @ F,0,0,1,0,0,0,1 @ F,0,0,1,0,0,0,1 @ F,0,0,1,0,0,0,1 @ F,0,0,1,0,0,0,1 @ F,0,0,1,0,0,0,1 @ F,0,0,1,0,0,0,1 @ F,0,0,1,0,0,0,1 @ F,0,0,1,0,0,0,1 @ F,0,0,1,0,0,0,1 @ F,0,0,1,0,0,0,1 @ F,0,0,1,0,0,0,1 @ F,0,0,1,0,0,0,1 @ F,0,0,1,0,0,0,1 @ F,0,0,1,0,0,0,1 @ F,0,0,1,0,0,0,1 @ F,0,0,1,0,0,0,1 @ F,0,0,1,0,0,0,1 @ F,0,0,1,0,0,0,1 @ F,0,0,1,0,0,0,1 @ F,0,0,1,0,0,0,1 @ F,0,0,1,0,0,0,1 @ F,0,0,1,0,0,0,1 @ F,0,0,1,0,0,0,1 @ F,0,0,1,0,0,0,1 @ F,0,0,1,0,0,0,1 | F,0,0,1,0,0,0,1 @ F,0,0,1,0,0,0,1 @ F,0,0,1,0,0,0,1 @ F,0,0,1,0,0,0,1 @ F,0,0,1,0,0,0,1 @ F,0,0,1,0,0,0,1 @ F,0,0,1,0,0,0,1"
       unit="px"
       method="auto"
       mode="F"
       radius="0"
       chamfer_steps="1"
       flexible="false"
       use_knot_distance="true"
       apply_no_radius="true"
       apply_with_radius="true"
       only_selected="false"
       hide_knots="false" /><inkscape:path-effect
       effect="bool_op"
       operand-path=""
       id="path-effect2010"
       is_visible="true"
       lpeversion="1.2"
       operation="diff"
       swap-operands="false"
       filltype-this="from-curve"
       filter=""
       filltype-operand="from-curve" /><inkscape:path-effect
       effect="fillet_chamfer"
       id="path-effect2006"
       is_visible="true"
       lpeversion="1"
       nodesatellites_param="F,0,0,1,0,2.38125,0,1 @ F,0,0,1,0,2.38125,0,1 @ F,0,0,1,0,2.38125,0,1 @ F,0,0,1,0,2.38125,0,1 @ F,0,0,1,0,2.38125,0,1 @ F,0,0,1,0,2.38125,0,1 @ F,0,0,1,0,2.38125,0,1 @ F,0,0,1,0,2.38125,0,1 @ F,0,0,1,0,2.38125,0,1"
       unit="px"
       method="auto"
       mode="F"
       radius="9"
       chamfer_steps="1"
       flexible="false"
       use_knot_distance="true"
       apply_no_radius="true"
       apply_with_radius="true"
       only_selected="false"
       hide_knots="false" /><inkscape:path-effect
       effect="bool_op"
       operand-path=""
       id="path-effect1998"
       is_visible="true"
       lpeversion="1.2"
       operation="diff"
       swap-operands="false"
       filltype-this="from-curve"
       filter=""
       filltype-operand="from-curve" /><inkscape:path-effect
       effect="fillet_chamfer"
       id="path-effect1994"
       is_visible="true"
       lpeversion="1"
       nodesatellites_param="F,0,0,1,0,3.7041667,0,1 @ F,0,0,1,0,3.7041667,0,1 @ F,0,0,1,0,3.7041667,0,1 @ F,0,0,1,0,3.7041667,0,1 @ F,0,0,1,0,3.7041667,0,1"
       unit="px"
       method="auto"
       mode="F"
       radius="14"
       chamfer_steps="1"
       flexible="false"
       use_knot_distance="true"
       apply_no_radius="true"
       apply_with_radius="true"
       only_selected="false"
       hide_knots="false" /><inkscape:path-effect
       effect="bool_op"
       operand-path=""
       id="path-effect3965"
       is_visible="true"
       lpeversion="1.2"
       operation="union"
       swap-operands="false"
       filltype-this="from-curve"
       filter=""
       filltype-operand="from-curve" /><inkscape:path-effect
       effect="bool_op"
       operand-path="#circle3925"
       id="path-effect3953"
       is_visible="true"
       lpeversion="1.2"
       operation="diff"
       swap-operands="false"
       filltype-this="from-curve"
       filter=""
       filltype-operand="from-curve" /><inkscape:path-effect
       effect="bool_op"
       operand-path=""
       id="path-effect3927"
       is_visible="true"
       lpeversion="1.2"
       operation="diff"
       swap-operands="false"
       filltype-this="from-curve"
       filter=""
       filltype-operand="from-curve" /><filter
       id="selectable_hidder_filter"
       width="1.1546172"
       height="1.1546172"
       x="-0.077308587"
       y="-0.077308587"
       style="color-interpolation-filters:sRGB"
       inkscape:label="LPE boolean visibility"><feComposite
         id="boolops_hidder_primitive"
         result="composite1"
         operator="arithmetic"
         in2="SourceGraphic"
         in="BackgroundImage"
         k1="0"
         k2="0"
         k3="0"
         k4="0" /></filter><inkscape:path-effect
       effect="bool_op"
       operand-path="#path3762"
       id="path-effect3893"
       is_visible="true"
       lpeversion="1"
       operation="symdiff"
       swap-operands="false"
       filltype-this="from-curve"
       filter=""
       filltype-operand="from-curve" /><inkscape:path-effect
       effect="fillet_chamfer"
       id="path-effect3708"
       is_visible="true"
       lpeversion="1"
       nodesatellites_param="F,0,0,1,0,2.38125,0,1 @ F,0,0,1,0,2.38125,0,1 @ F,0,0,1,0,2.38125,0,1 @ F,0,0,1,0,2.38125,0,1 @ F,0,0,1,0,2.38125,0,1 @ F,0,0,1,0,2.38125,0,1 @ F,0,0,1,0,2.38125,0,1 @ F,0,0,1,0,2.38125,0,1 @ F,0,0,1,0,2.38125,0,1"
       unit="px"
       method="auto"
       mode="F"
       radius="9"
       chamfer_steps="1"
       flexible="false"
       use_knot_distance="true"
       apply_no_radius="true"
       apply_with_radius="true"
       only_selected="false"
       hide_knots="false" /><inkscape:path-effect
       effect="fillet_chamfer"
       id="path-effect3651"
       is_visible="true"
       lpeversion="1"
       nodesatellites_param="F,0,0,1,0,3.7041667,0,1 @ F,0,0,1,0,3.7041667,0,1 @ F,0,0,1,0,3.7041667,0,1 @ F,0,0,1,0,3.7041667,0,1 @ F,0,0,1,0,3.7041667,0,1"
       unit="px"
       method="auto"
       mode="F"
       radius="14"
       chamfer_steps="1"
       flexible="false"
       use_knot_distance="true"
       apply_no_radius="true"
       apply_with_radius="true"
       only_selected="false"
       hide_knots="false" /></defs><g
     inkscape:groupmode="layer"
     id="layer7"
     inkscape:label="bg"
     transform="translate(44.016949,8.9043218)"><rect
       style="fill:#1b1544;fill-opacity:1;stroke:none;stroke-width:1.86991;stroke-linecap:butt;stroke-linejoin:round;stroke-dasharray:5.60973, 1.86991;stroke-dashoffset:0"
       id="rect3860"
       width="426.36984"
       height="358.91245"
       x="201.94049"
       y="16.909767"
       transform="translate(-245.95744,-31.898329)" /></g><g
     inkscape:label="Layer 1"
     inkscape:groupmode="layer"
     id="layer1"
     style="display:none"
     sodipodi:insensitive="true"
     transform="translate(-201.94049,-22.994007)"><path
       id="path3381"
       style="stroke:#000000;stroke-linecap:round;stroke-linejoin:round"
       d="m 98.100989,22.341789 c -34.208784,0 -61.940922,26.622086 -61.940922,59.46252 0,20.096611 20.724316,32.200601 20.724316,49.856901 v 65.18104 c 0,2.52105 2.191956,4.55063 4.914946,4.55063 h 54.841611 c 2.72299,0 4.91495,-2.02958 4.91495,-4.55063 v -33.99121 c 12.90304,7.69717 25.36325,14.19452 31.02653,9.37462 12.79963,-10.89351 7.45897,-72.708716 7.45897,-90.421351 0,-32.840435 -27.73162,-59.462522 -61.940401,-59.46252 z"
       sodipodi:nodetypes="ssssssscsss"
       inkscape:original-d="m 98.100989,22.341789 c -34.208784,0 -61.940922,26.622086 -61.940922,59.46252 0,20.096611 20.724316,32.200601 20.724316,49.856901 v 65.18104 c 0,2.52105 2.191956,4.55063 4.914946,4.55063 h 54.841611 c 2.72299,0 4.91495,-2.02958 4.91495,-4.55063 v -33.99121 c 12.90304,7.69717 25.36325,14.19452 31.02653,9.37462 12.79963,-10.89351 7.45897,-72.708716 7.45897,-90.421351 0,-32.840435 -27.73162,-59.462522 -61.940401,-59.46252 z"
       inkscape:path-effect="#path-effect3965"
       class="UnoptimicedTransforms" /></g><g
     inkscape:groupmode="layer"
     id="layer3"
     inkscape:label="stickman"
     transform="translate(-201.94049,-22.994007)"><path
       id="path4027"
       style="color:#000000;fill:#bfbfbf;-inkscape-stroke:none"
       class="stickman"
       inkscape:transform-center-x="11.858613"
       inkscape:transform-center-y="63.074254"
       d="m 289.95889,31.029913 c -7.97547,0 -15.00896,4.114913 -19.17661,10.378056 l 6.96392,5.61475 c 0.46974,0.378658 0.99907,0.660262 1.56059,0.832377 l 7.06993,2.167436 c -1.53651,1.137261 -2.54673,3.064161 -2.54673,5.250333 0,1.808867 0.6915,3.44058 1.80054,4.594506 l -18.03252,0.0093 c 2.35887,7.345672 10.16499,14.103146 13.57088,17.20686 -0.10558,0.372148 -1.0107,18.582249 -1.0107,18.582249 l -24.44154,5.49782 -9.75905,63.78609 1.08232,63.74967 c 0.69733,2.67178 4.87134,3.49947 7.54317,2.80233 2.67248,-0.69645 3.19188,-4.45847 2.49496,-7.13085 l 2.79498,-60.76427 10.23217,-41.66716 -2.0156,22.8534 -4.75525,74.11653 -0.49252,70.68866 -15.66523,67.27464 c 0,0 1.39253,4.96594 9.04637,5.02746 7.65385,0.0615 9.04638,-5.02746 9.04638,-5.02746 l 15.4823,-67.27464 3.83032,-64.21958 9.57336,0.26681 4.50614,63.95277 -6.73044,67.27464 c 0,0 -0.50526,5.69544 9.19905,6.2517 9.70431,0.55626 9.19905,-6.2517 9.19905,-6.2517 l 6.24216,-67.27464 -1.6716,-71.67214 -8.59371,-73.88245 -2.37006,-22.104 17.60767,40.2294 61.56733,-23.94311 c 2.64007,0.80954 3.90647,-1.33008 4.71603,-3.97014 0.80937,-2.64064 -0.67519,-5.43751 -3.31602,-6.24624 l -52.27379,13.76639 -10.46499,-40.61211 -25.46678,-5.49782 0.047,-10.580783 c 11.26858,6.128171 14.76153,-6.084482 16.29824,-18.569923 l -21.80844,-1.488359 c -0.76949,-0.05247 -1.36947,-0.750536 -1.36947,-1.595778 v -1.82782 c 0.0435,0.0011 0.0869,0.0016 0.13067,0.0016 3.1895,0 5.77534,-2.835192 5.77534,-6.331958 0,-3.496767 -2.58584,-6.329788 -5.77534,-6.329788 -0.0437,0 -0.0871,4.41e-4 -0.13067,0.0016 v -2.032892 c 0,-0.84539 0.59988,-1.544768 1.36947,-1.597792 l 19.50057,-1.343585 c -3.86365,-7.673338 -11.36937,-12.94029 -20.38379,-12.94029 z m -21.43596,14.667202 c -1.11532,2.770394 -1.73156,5.804113 -1.73156,8.985026 0,0.113335 0.004,0.225058 0.006,0.337446 l 9.22838,0.794246 c 0.49338,0.04247 0.93125,-0.344966 0.99792,-0.882599 l 0.3359,-2.707319 c 0.0717,-0.578612 -0.18481,-1.145366 -0.64808,-1.433487 z"
       sodipodi:nodetypes="cccccsccccccccccccccczcccccczcccccccccccccccscssscsccscsccccccs"
       inkscape:path-effect="#path-effect7792"
       inkscape:original-d="m 289.95889,31.029913 c -7.97547,0 -15.00896,4.114913 -19.17661,10.378056 l 6.96392,5.61475 c 0.46974,0.378658 0.99907,0.660262 1.56059,0.832377 l 7.06993,2.167436 c -1.53651,1.137261 -2.54673,3.064161 -2.54673,5.250333 0,1.808867 0.6915,3.44058 1.80054,4.594506 l -18.03252,0.0093 c 2.35887,7.345672 10.16499,14.103146 13.57088,17.20686 -0.10558,0.372148 -1.0107,18.582249 -1.0107,18.582249 l -24.44154,5.49782 -9.75905,63.78609 1.08232,63.74967 c 0.69733,2.67178 4.87134,3.49947 7.54317,2.80233 2.67248,-0.69645 3.19188,-4.45847 2.49496,-7.13085 l 2.79498,-60.76427 10.23217,-41.66716 -2.0156,22.8534 -4.75525,74.11653 -0.49252,70.68866 -15.66523,67.27464 c 0,0 1.39253,4.96594 9.04637,5.02746 7.65385,0.0615 9.04638,-5.02746 9.04638,-5.02746 l 15.4823,-67.27464 3.83032,-64.21958 9.57336,0.26681 4.50614,63.95277 -6.73044,67.27464 c 0,0 -0.50526,5.69544 9.19905,6.2517 9.70431,0.55626 9.19905,-6.2517 9.19905,-6.2517 l 6.24216,-67.27464 -1.6716,-71.67214 -8.59371,-73.88245 -2.37006,-22.104 17.60767,40.2294 61.56733,-23.94311 c 2.64007,0.80954 3.90647,-1.33008 4.71603,-3.97014 0.80937,-2.64064 -0.67519,-5.43751 -3.31602,-6.24624 l -52.27379,13.76639 -10.46499,-40.61211 -25.46678,-5.49782 0.047,-10.580783 c 11.26858,6.128171 14.76153,-6.084482 16.29824,-18.569923 l -21.80844,-1.488359 c -0.76949,-0.05247 -1.36947,-0.750536 -1.36947,-1.595778 v -1.82782 c 0.0435,0.0011 0.0869,0.0016 0.13067,0.0016 3.1895,0 5.77534,-2.835192 5.77534,-6.331958 0,-3.496767 -2.58584,-6.329788 -5.77534,-6.329788 -0.0437,0 -0.0871,4.41e-4 -0.13067,0.0016 v -2.032892 c 0,-0.84539 0.59988,-1.544768 1.36947,-1.597792 l 19.50057,-1.343585 c -3.86365,-7.673338 -11.36937,-12.94029 -20.38379,-12.94029 z m -21.43596,14.667202 c -1.11532,2.770394 -1.73156,5.804113 -1.73156,8.985026 0,0.113335 0.004,0.225058 0.006,0.337446 l 9.22838,0.794246 c 0.49338,0.04247 0.93125,-0.344966 0.99792,-0.882599 l 0.3359,-2.707319 c 0.0717,-0.578612 -0.18481,-1.145366 -0.64808,-1.433487 z" /></g><g
     inkscape:groupmode="layer"
     id="layer2"
     inkscape:label="headset"
     transform="translate(-201.94049,-22.994007)"><g
       id="g369"
       transform="translate(-2.0565219e-6,-0.04349907)"
       style="stroke-dasharray:none"
       class="headset"><path
         id="rect3705"
         style="stroke:#000000;stroke-width:4.82255;stroke-linecap:round;stroke-linejoin:round;stroke-dasharray:none"
         d="m 95.927589,70.670165 -19.0917,-5.339256 c -1.516331,-0.423939 -2.9456,-1.116708 -4.214115,-2.049388 L 48.233751,45.34699 c -0.515291,-0.378883 -1.137788,-0.494573 -1.714109,-0.380051 -0.57632,0.114525 -1.108569,0.458339 -1.439855,1.00545 l -4.419805,7.302741 c -0.675452,1.115455 -0.29564,2.570171 0.838583,3.213593 l 28.327886,16.072763 c 1.251016,0.709677 1.944777,2.105914 1.75105,3.531102 l -0.907174,6.66772 c -0.180036,1.324252 -1.362813,2.279072 -2.695138,2.174467 L 35.507044,82.38507 c -1.23584,-0.09703 -2.257078,0.950884 -2.130781,2.184085 l 0.817494,8.009926 c 0.137801,1.34544 1.274104,2.367543 2.626575,2.366895 l 57.092727,-0.02665 c -2.994862,-2.842254 -4.862055,-6.861685 -4.862055,-11.317137 0,-5.384795 2.727368,-10.130821 6.876585,-12.932027 z"
         sodipodi:nodetypes="cccccccccc"
         inkscape:original-d="m 46.315609,43.936002 28.226492,20.753985 34.844409,9.741903 1.9676,20.477248 -76.915356,0.03687 -1.305597,-12.748019 37.21664,2.922005 1.547724,-11.385237 -32.471832,-18.420498 z"
         inkscape:path-effect="#path-effect3708;#path-effect3953"
         class="UnoptimicedTransforms  headset "
         transform="matrix(0.37031497,0,0,0.40599054,250.85316,21.374707)" /><path
         id="rect3646"
         style="stroke:#000000;stroke-width:4.82255;stroke-linecap:round;stroke-linejoin:round;stroke-dasharray:none"
         d="m 107.98433,59.072054 64.75717,-4.069697 c 2.04172,-0.128313 4.51326,1.215147 5.34913,3.081676 2.98094,6.65663 4.46252,14.131235 4.91235,20.514953 0.14378,2.040374 0.16548,5.362895 -0.0224,7.399147 -0.62973,6.826787 -2.89178,15.772907 -5.43227,22.448467 -0.7275,1.91164 -3.07457,3.31779 -5.11638,3.1908 l -64.4475,-4.00822 a 3.941699,3.941699 46.779422 0 1 -3.69702,-3.9341 V 63.008553 a 3.9442647,3.9442647 133.20197 0 1 3.69687,-3.936499 z"
         sodipodi:nodetypes="cczccc"
         inkscape:original-d="m 104.28746,59.304386 72.15091,-4.534361 c 4.80386,8.668819 6.64045,19.484689 6.7146,27.529508 0.0742,8.044819 -3.4466,21.725127 -7.02397,29.567797 l -71.84154,-4.46808 z"
         inkscape:path-effect="#path-effect3651;#path-effect3927"
         class="UnoptimicedTransforms  headset "
         transform="matrix(0.37031497,0,0,0.40599054,250.85316,21.374707)" /><circle
         style="display:inline;stroke:#000000;stroke-width:4.82255;stroke-linecap:round;stroke-linejoin:round;stroke-dasharray:none"
         id="path3762"
         cx="104.64388"
         cy="83.604378"
         r="15.59513"
         class="UnoptimicedTransforms  headset "
         transform="matrix(0.37031497,0,0,0.40599054,250.85316,21.374707)" /><circle
         style="display:inline;fill:none;stroke:#000000;stroke-width:4.82255;stroke-linecap:round;stroke-linejoin:round;stroke-dasharray:none;filter:url(#selectable_hidder_filter)"
         id="circle3925"
         cx="104.64388"
         cy="83.604378"
         r="15.59513"
         class="UnoptimicedTransforms"
         transform="matrix(0.37031497,0,0,0.40599054,250.85316,21.374707)" /><circle
         style="display:inline;fill:none;stroke:#000000;stroke-width:4.82255;stroke-linecap:round;stroke-linejoin:round;stroke-dasharray:none"
         id="circle1990"
         cx="104.64388"
         cy="83.604378"
         r="15.59513"
         transform="matrix(0.37031497,0,0,0.40599054,250.85316,21.374707)" /><circle
         style="display:inline;fill:none;stroke:#1a1a1a;stroke-width:4.82255;stroke-linecap:round;stroke-linejoin:round;stroke-dasharray:none"
         id="circle2002"
         cx="104.64388"
         cy="83.604378"
         r="15.59513"
         transform="matrix(0.37031497,0,0,0.40599054,250.85316,21.374707)" /></g></g><g
     inkscape:groupmode="layer"
     id="layer5"
     inkscape:label="robot"
     transform="translate(-201.94049,-22.994007)"
     style="fill:#1b1544;fill-opacity:1"><path
       id="rect1412"
       inkscape:transform-center-x="0.31554309"
       inkscape:transform-center-y="-70.59102"
       d="m 496.22522,132.79256 0.68677,47.77273 c 1.2e-4,0.008 0.006,0.0141 0.0151,0.014 l 25.49772,-0.33094 c 0.008,-10e-5 0.0152,-0.007 0.0151,-0.0147 l -0.67565,-47.00748 a 17.858621,16.971616 1.6460293e-6 0 1 -12.31356,4.90508 17.858621,16.971616 1.6460293e-6 0 1 -13.22544,-5.33871 z"
       class="robot"
       style="fill:#1b1544;fill-opacity:1;stroke:#e60c57;stroke-width:2.99953;stroke-dasharray:35.9944, 2.99953;stroke-dashoffset:0;stroke-opacity:1" /><path
       id="rect1414"
       inkscape:transform-center-x="23.200241"
       inkscape:transform-center-y="-26.235849"
       d="m 477.53811,72.749509 a 14.846716,14.109307 15.73761 0 1 -0.42199,4.187095 14.846716,14.109307 15.73761 0 1 -13.2632,10.307365 L 491.86238,116.835 a 17.858621,16.971617 15.73761 0 1 0.0434,-0.19373 17.858621,16.971617 15.73761 0 1 15.47686,-12.36152 z"
       class="robot"
       style="fill:#1b1544;fill-opacity:1;stroke:#e60c57;stroke-width:2.99953;stroke-dasharray:35.9944, 2.99953;stroke-dashoffset:0;stroke-opacity:1" /><ellipse
       id="path1568"
       transform="matrix(0.96595331,0.25871646,-0.25737156,0.96631252,0,0)"
       inkscape:transform-center-x="-0.33804148"
       inkscape:transform-center-y="0.23345002"
       class="robot"
       cy="-14.594068"
       cx="523.21368"
       rx="17.858459"
       ry="16.971786"
       style="fill:#1b1544;fill-opacity:1;stroke:#e60c57;stroke-width:2.99953;stroke-dasharray:35.9944, 2.99953;stroke-dashoffset:0;stroke-opacity:1" /><path
       id="rect1638"
       inkscape:transform-center-x="75.882211"
       inkscape:transform-center-y="-39.20469"
       d="m 450.10163,65.491582 -39.24354,13.803712 a 14.846716,14.109307 15.737611 0 1 7.57555,16.244144 14.846716,14.109307 15.737611 0 1 -1.00045,2.61581 l 37.58034,-13.218569 a 14.846716,14.109307 15.737611 0 1 -6.57945,-15.682367 14.846716,14.109307 15.737611 0 1 1.66755,-3.76273 z"
       class="robot"
       style="fill:#1b1544;fill-opacity:1;stroke:#e60c57;stroke-width:2.99953;stroke-dasharray:35.9944, 2.99953;stroke-dashoffset:0;stroke-opacity:1" /><ellipse
       id="circle1636"
       cx="465.99841"
       cy="-49.120846"
       transform="matrix(0.96595331,0.25871646,-0.25737156,0.96631252,0,0)"
       inkscape:transform-center-x="46.042998"
       inkscape:transform-center-y="-47.932731"
       class="robot"
       rx="14.846581"
       ry="14.109448"
       style="fill:#1b1544;fill-opacity:1;stroke:#e60c57;stroke-width:2.99953;stroke-dasharray:35.9944, 2.99953;stroke-dashoffset:0;stroke-opacity:1" /><path
       id="path1642"
       d="m 409.4856,105.20968 a 14.846716,14.109307 23.114815 0 1 -10.61637,-0.32785 l 3.64887,11.82815 -12.83214,18.05391 19.945,-15.01599 z"
       inkscape:transform-center-x="3.7881286"
       inkscape:transform-center-y="27.944911"
       class="robot"
       style="fill:#1b1544;fill-opacity:1;stroke:#e60c57;stroke-width:2.99953;stroke-dasharray:35.9944, 2.99953;stroke-dashoffset:0;stroke-opacity:1" /><path
       id="path1644"
       d="m 389.35704,93.189681 -14.24753,10.555769 -0.38004,24.66155 7.11212,-21.05659 12.78854,-4.85498 a 14.109307,14.846716 88.82416 0 1 -5.27309,-9.305749 z"
       class="robot"
       inkscape:transform-center-x="19.203076"
       inkscape:transform-center-y="19.210429"
       style="fill:#1b1544;fill-opacity:1;stroke:#e60c57;stroke-width:2.99953;stroke-dasharray:35.9944, 2.99953;stroke-dashoffset:0;stroke-opacity:1" /><ellipse
       id="circle1640"
       cx="414.08075"
       cy="-15.968991"
       transform="matrix(0.96595331,0.25871646,-0.25737156,0.96631252,0,0)"
       inkscape:transform-center-x="104.72538"
       inkscape:transform-center-y="-29.329635"
       class="robot"
       rx="14.846581"
       ry="14.109448"
       style="fill:#1b1544;fill-opacity:1;stroke:#e60c57;stroke-width:2.99953;stroke-dasharray:35.9944, 2.99953;stroke-dashoffset:0;stroke-opacity:1" /><path
       id="rect986"
       style="fill:#1b1544;fill-opacity:1;stroke:#e60c57;stroke-width:2.99953;stroke-linecap:butt;stroke-linejoin:round;stroke-dasharray:35.9944, 2.99953;stroke-dashoffset:0;stroke-opacity:1"
       d="m 351.3003,180.44274 c -10.71416,0 -19.33968,3.75383 -19.33968,8.41662 v 174.04856 c 0,4.66278 8.62552,8.41662 19.33968,8.41662 h 14.04703 v -150.6059 c 0,-4.22782 6.12182,-7.63137 13.72601,-7.63137 h 135.80942 c 7.60419,0 13.72586,3.40355 13.72586,7.63137 v 150.6059 h 14.0447 c 10.71416,0 19.33967,-3.75384 19.33967,-8.41662 V 188.85936 c 0,-4.66279 -8.62551,-8.41662 -19.33967,-8.41662 z" /><rect
       style="fill:#1b1544;fill-opacity:1;stroke:#e60c57;stroke-width:2.99953;stroke-linecap:butt;stroke-linejoin:round;stroke-dasharray:35.9944, 2.99953;stroke-dashoffset:0;stroke-opacity:1"
       id="rect2934"
       width="44.343189"
       height="30.780785"
       x="388.87088"
       y="148.72321" /><rect
       style="fill:#1b1544;fill-opacity:1;stroke:#e60c57;stroke-width:2.99953;stroke-linecap:butt;stroke-linejoin:round;stroke-dasharray:35.9944, 2.99953;stroke-dashoffset:0;stroke-opacity:1"
       id="rect2936"
       width="26.422138"
       height="25.657883"
       x="446.97815"
       y="154.78105" /><rect
       style="fill:#1b1544;fill-opacity:1;stroke:#e60c57;stroke-width:2.99953;stroke-linecap:butt;stroke-linejoin:round;stroke-dasharray:35.9944, 2.99953;stroke-dashoffset:0;stroke-opacity:1"
       id="rect2938"
       width="15.034173"
       height="11.784845"
       x="398.34814"
       y="-3.2898724"
       transform="rotate(18.670998)" /></g></svg>
